<svg width="351" height="312" viewBox="0 0 351 312" fill="none" xmlns="http://www.w3.org/2000/svg">
<path d="M8.87538 312H192.42C193.587 312 194.741 311.77 195.819 311.323C196.896 310.877 197.875 310.222 198.699 309.397C199.524 308.572 200.177 307.592 200.623 306.514C201.068 305.436 201.297 304.281 201.296 303.115V47.9861C201.297 46.8202 201.068 45.6655 200.623 44.588C200.177 43.5106 199.523 42.5317 198.699 41.7072C197.874 40.8828 196.895 40.229 195.818 39.7834C194.741 39.3378 193.586 39.1091 192.42 39.1104H8.87538C6.52226 39.1129 4.26623 40.0488 2.60231 41.7128C0.938402 43.3768 0.00251268 45.6329 0 47.9861L0 303.115C-1.3439e-06 305.47 0.934778 307.728 2.59896 309.394C4.26315 311.06 6.52061 311.997 8.87538 312V312Z" fill="#FFDB80"/>
<path d="M192.42 307.947C193.702 307.947 194.931 307.437 195.837 306.531C196.743 305.625 197.252 304.396 197.252 303.115V47.9861C197.249 46.7063 196.739 45.4797 195.833 44.5756C194.927 43.6715 193.7 43.1638 192.42 43.1638H8.87538C8.24178 43.1625 7.61416 43.2864 7.02855 43.5283C6.44294 43.7702 5.91085 44.1254 5.46283 44.5734C5.0148 45.0215 4.65965 45.5536 4.41776 46.1392C4.17587 46.7249 4.052 47.3525 4.05325 47.9861V303.115C4.052 303.749 4.17581 304.377 4.41758 304.963C4.65936 305.549 5.01436 306.082 5.46226 306.531C5.91016 306.98 6.44217 307.336 7.02783 307.579C7.6135 307.822 8.24133 307.947 8.87538 307.947H192.42Z" fill="#D6AA3E"/>
<path d="M189.734 54.0615H15.4251V301.719H189.734V54.0615Z" fill="#B28729"/>
<path d="M187.797 51.5839H13.4887V299.242H187.797V51.5839Z" fill="white"/>
<path d="M161.285 41.4741C161.283 39.5152 160.504 37.6372 159.12 36.2512C157.736 34.8652 155.859 34.0842 153.9 34.0792H110.33C109.687 34.083 109.055 33.9185 108.495 33.6021C107.936 33.2857 107.469 32.8284 107.141 32.2755C106.908 31.8876 106.75 31.4593 106.675 31.013V31.013C106.511 30.0732 106.719 29.1064 107.254 28.317C107.555 27.8808 107.943 27.5122 108.394 27.2349C111.115 25.5509 113.214 23.0253 114.371 20.0411C115.528 17.0568 115.68 13.7767 114.805 10.698C113.929 7.61936 112.074 4.91009 109.52 2.98102C106.966 1.05194 103.853 0.00828362 100.653 0.00828362C97.452 0.00828362 94.3387 1.05194 91.7848 2.98102C89.2309 4.91009 87.3756 7.61936 86.5003 10.698C85.625 13.7767 85.7773 17.0568 86.9343 20.0411C88.0913 23.0253 90.1897 25.5509 92.9115 27.2349C93.4245 27.544 93.8571 27.9701 94.174 28.4784C94.6093 29.2262 94.7704 30.1023 94.6296 30.956V30.956C94.4746 31.8169 94.0235 32.5966 93.3544 33.16C92.6853 33.7234 91.8402 34.0351 90.9655 34.0412H47.405C46.3016 34.0435 45.2125 34.2899 44.2155 34.7626C42.9599 35.3617 41.899 36.3033 41.1551 37.4789C40.4111 38.6545 40.0143 40.0164 40.0104 41.4076V54.8209C40.0092 55.7924 40.1996 56.7546 40.5707 57.6523C40.9419 58.5501 41.4865 59.3658 42.1734 60.0527C42.8603 60.7396 43.676 61.2843 44.5737 61.6555C45.4714 62.0267 46.4336 62.2171 47.405 62.2158H153.9C155.86 62.2133 157.738 61.4331 159.123 60.0466C160.507 58.66 161.285 56.7805 161.285 54.8209V41.4741Z" fill="#44597F"/>
<path d="M153.9 58.7415C154.414 58.7415 154.924 58.64 155.399 58.4429C155.874 58.2457 156.306 57.9568 156.669 57.5926C157.032 57.2284 157.32 56.7962 157.516 56.3205C157.712 55.8449 157.812 55.3353 157.811 54.8209V41.4741C157.812 40.9597 157.712 40.4501 157.516 39.9745C157.32 39.4989 157.032 39.0666 156.669 38.7024C156.306 38.3382 155.874 38.0493 155.399 37.8521C154.924 37.655 154.414 37.5535 153.9 37.5535H110.33C109.083 37.5513 107.859 37.2257 106.775 36.6084C105.692 35.9911 104.788 35.1032 104.15 34.0317C103.688 33.2764 103.366 32.4434 103.201 31.5731C102.966 30.1635 103.156 28.7159 103.746 27.4144C104.336 26.1128 105.299 25.0161 106.514 24.2636C108.593 22.9772 110.196 21.0479 111.079 18.7683C111.963 16.4888 112.079 13.9832 111.411 11.6316C110.742 9.28001 109.325 7.21056 107.374 5.73707C105.423 4.26357 103.045 3.46639 100.6 3.46639C98.1556 3.46639 95.7775 4.26357 93.8267 5.73707C91.8758 7.21056 90.4586 9.28001 89.7899 11.6316C89.1212 13.9832 89.2375 16.4888 90.1212 18.7683C91.0048 21.0479 92.6076 22.9772 94.6866 24.2636C95.692 24.8874 96.5295 25.7478 97.1261 26.7697C97.9727 28.2184 98.2818 29.9191 97.9994 31.5731C97.8688 32.3703 97.5989 33.1382 97.202 33.8418C96.5815 34.9654 95.6714 35.9022 94.5663 36.5549C93.4613 37.2076 92.2015 37.5524 90.9181 37.5535H47.405C46.8898 37.5523 46.3795 37.6528 45.9033 37.8494C45.427 38.046 44.9944 38.3347 44.6301 38.699C44.2658 39.0633 43.9771 39.496 43.7805 39.9723C43.5839 40.4485 43.4834 40.9589 43.4846 41.4741V54.8209C43.4846 55.8607 43.8977 56.8579 44.6329 57.5932C45.3681 58.3284 46.3652 58.7415 47.405 58.7415H153.9Z" fill="#2A4268"/>
<path d="M100.648 19.109C103.447 19.109 105.717 16.8395 105.717 14.0399C105.717 11.2402 103.447 8.9707 100.648 8.9707C97.8483 8.9707 95.5789 11.2402 95.5789 14.0399C95.5789 16.8395 97.8483 19.109 100.648 19.109Z" fill="#28334A"/>
<path d="M164.617 203.326H123.524V162.232H164.617V203.326ZM125.841 201.01H162.32V164.548H125.841V201.01Z" fill="#44597F"/>
<path d="M129.713 172.446L143.658 193.33L165.927 156.147L143.269 181.787L129.713 172.446Z" fill="#C13D3D"/>
<path d="M112.162 162.137H30.7933V166.732H112.162V162.137Z" fill="#44597F"/>
<path d="M112.162 171.288H30.7933V175.883H112.162V171.288Z" fill="#44597F"/>
<path d="M112.162 180.43H30.7933V185.024H112.162V180.43Z" fill="#44597F"/>
<path d="M112.162 189.581H30.7933V194.175H112.162V189.581Z" fill="#44597F"/>
<path d="M85.8681 198.732H30.7933V203.326H85.8681V198.732Z" fill="#44597F"/>
<path d="M164.617 125.685H123.524V84.5904H164.617V125.685ZM125.841 123.406H162.32V86.9066H125.841V123.406Z" fill="#44597F"/>
<path d="M129.713 94.7951L143.658 115.689L165.927 78.5055L143.269 104.146L129.713 94.7951Z" fill="#75AF8E"/>
<path d="M112.162 84.486H30.7933V89.0805H112.162V84.486Z" fill="#44597F"/>
<path d="M112.162 93.637H30.7933V98.2315H112.162V93.637Z" fill="#44597F"/>
<path d="M112.162 102.788H30.7933V107.383H112.162V102.788Z" fill="#44597F"/>
<path d="M112.162 111.939H30.7933V116.534H112.162V111.939Z" fill="#44597F"/>
<path d="M85.8681 121.09H30.7933V125.685H85.8681V121.09Z" fill="#44597F"/>
<path d="M164.617 280.987H123.524V239.874H164.617V280.987ZM125.841 278.68H162.32V242.19H125.841V278.68Z" fill="#44597F"/>
<path d="M129.713 250.088L143.658 270.972L165.927 233.798L143.269 259.429L129.713 250.088Z" fill="#75AF8E"/>
<path d="M112.162 239.779H30.7933V244.373H112.162V239.779Z" fill="#44597F"/>
<path d="M112.162 248.93H30.7933V253.524H112.162V248.93Z" fill="#44597F"/>
<path d="M112.162 258.081H30.7933V262.675H112.162V258.081Z" fill="#44597F"/>
<path d="M112.162 267.232H30.7933V271.826H112.162V267.232Z" fill="#44597F"/>
<path d="M85.8681 276.374H30.7933V280.968H85.8681V276.374Z" fill="#44597F"/>
<path d="M252.877 113.676L222.834 151.496H240.661L252.877 138.405V113.676Z" fill="#44597F"/>
<path d="M225.919 151.496L252.877 117.72V113.676L222.834 151.496H225.919Z" fill="#54739E"/>
<path d="M252.877 127.707L234.937 151.496H240.66L252.877 138.405V127.707Z" fill="#2A4268"/>
<path d="M284.791 107.667L283.462 103.832L267.581 103.206L265.882 107.24V127.821L272.669 142.629L285.854 114.255L284.791 107.667Z" fill="#D7DCDE"/>
<path d="M267.59 103.206L265.882 107.269C265.882 107.269 275.051 115.167 284.791 107.696L283.462 103.899L267.59 103.206Z" fill="#FAF9F9"/>
<path d="M288.701 109.11L299.627 113.676L295.65 186.182L252.146 183.515L252.877 113.676L265.882 107.24L272.669 142.629L284.791 107.667L288.701 109.11Z" fill="#28334A"/>
<path d="M288.701 109.11L299.627 113.676L295.65 186.182L252.146 183.515L252.877 113.676L265.882 107.24L272.669 142.629L284.791 107.667L288.701 109.11Z" fill="#1A2C4C"/>
<path d="M252.877 113.676L252.146 183.515L256.143 183.762L254.937 112.661L252.877 113.676Z" fill="#26436D"/>
<path d="M298.241 139.051L287.942 185.708L295.65 186.182L298.241 139.051Z" fill="#121C2D"/>
<path d="M172.41 151.894V160.409L185.557 166.504V145.8L172.41 151.894Z" fill="#DCA52A"/>
<path d="M172.41 151.894V154.552L185.557 149.91V145.8L172.41 151.894Z" fill="#FFC85A"/>
<path d="M335.47 166.504H348.029C348.419 166.505 348.806 166.429 349.167 166.28C349.528 166.131 349.856 165.912 350.133 165.636C350.409 165.36 350.628 165.032 350.776 164.671C350.925 164.31 351.001 163.923 351 163.533V148.762C351 148.372 350.923 147.986 350.774 147.626C350.624 147.266 350.405 146.939 350.129 146.664C349.853 146.389 349.526 146.171 349.165 146.023C348.805 145.874 348.419 145.799 348.029 145.8H335.47V166.504Z" fill="#DCA52A"/>
<path d="M335.47 166.504H348.029C348.419 166.505 348.806 166.429 349.167 166.28C349.528 166.131 349.856 165.912 350.133 165.636C350.409 165.36 350.628 165.032 350.776 164.671C350.925 164.31 351.001 163.923 351 163.533V163.533C350.997 162.746 350.683 161.993 350.126 161.438C349.569 160.883 348.815 160.571 348.029 160.571H335.47V166.504Z" fill="#9B7522"/>
<path d="M335.47 145.8H185.557V166.513H335.47V145.8Z" fill="#C13D3D"/>
<path d="M335.47 145.8H185.557V149.91H335.47V145.8Z" fill="#E24D4D"/>
<path d="M335.47 160.571H185.557V166.513H335.47V160.571Z" fill="#952828"/>
<path d="M172.41 157.97V160.409L185.557 166.504V160.571L172.41 157.97Z" fill="#9B7522"/>
<path d="M172.41 151.894L163.525 156.147L172.41 160.409V151.894Z" fill="#C13D3D"/>
<path d="M348.029 145.8H335.47V149.91H351V148.762C351 148.372 350.923 147.986 350.774 147.626C350.624 147.266 350.405 146.939 350.129 146.664C349.853 146.389 349.526 146.171 349.165 146.023C348.805 145.874 348.419 145.799 348.029 145.8V145.8Z" fill="#FFC85A"/>
<path d="M297.738 89.3937L293.941 87.2484L296.162 79.7396L263.793 70.1233L259.047 86.0333C258.416 88.16 258.21 90.3903 258.441 92.5967C258.671 94.8031 259.335 96.9424 260.392 98.8924C261.45 100.842 262.882 102.565 264.606 103.961C266.329 105.358 268.311 106.401 270.438 107.031V107.031C274.605 108.27 279.09 107.853 282.957 105.867C286.825 103.882 289.777 100.48 291.198 96.3709C293.808 99.5985 297.843 95.3552 298.792 92.9725C300.007 90.1152 297.738 89.3937 297.738 89.3937Z" fill="#FFC794"/>
<path d="M263.822 70.1328L259.076 86.0428C258.304 88.618 258.16 91.3405 258.656 93.9827C259.151 96.625 260.272 99.1104 261.923 101.231C260.781 98.7034 259.968 96.0395 259.503 93.3048C258.554 87.7325 263.547 75.9804 265.91 70.7878L263.822 70.1328Z" fill="#FFE0C7"/>
<path d="M297.738 89.3937L293.941 87.2484L296.162 79.7396L291.739 78.4201C291.739 93.2668 281.297 105.275 268.407 105.275C267.695 105.275 266.992 105.275 266.299 105.171C267.588 105.986 268.98 106.625 270.438 107.069C274.605 108.308 279.09 107.891 282.957 105.905C286.825 103.92 289.777 100.518 291.198 96.4089C293.808 99.6365 297.843 95.3932 298.792 93.0105C300.007 90.1152 297.738 89.3937 297.738 89.3937Z" fill="#EAA36E"/>
<path d="M296.343 70.1518C296.343 70.1518 296.666 60.2983 287.012 58.3048C277.358 56.3113 269.869 52.2104 269.707 48.2045C269.707 48.2045 253.152 58.7889 262.265 75.3729L263.822 70.1328C263.822 70.1328 280.785 79.9294 289.034 77.6227C289.034 77.6227 286.082 87.4667 292.527 92.1087C292.527 92.1087 294.672 88.4824 297.738 89.3937C297.738 89.3937 306.908 74.8982 296.343 70.1518Z" fill="#493222"/>
<path d="M298.346 82.6633C298.023 80.7925 297.21 79.0404 295.992 77.5847C295.992 77.5847 295.175 83.5841 292.65 86.5744C292.65 86.5744 289.299 79.6921 290.296 75.0976C290.296 75.0976 277.899 76.1513 273.988 70.7024C273.953 71.8201 274.258 72.9222 274.862 73.8635C274.862 73.8635 262.427 69.8101 260.756 59.1212C259.057 63.4689 258.753 68.9747 262.265 75.3729L263.822 70.1328C263.822 70.1328 280.785 79.9294 289.034 77.6227C289.034 77.6227 286.082 87.4667 292.527 92.1087C292.527 92.1087 294.672 88.4824 297.738 89.3937C297.738 89.3937 303.358 80.5085 300.728 74.3761C300.728 74.4046 300.7 79.1985 298.346 82.6633Z" fill="#33231A"/>
<path d="M266.138 83.9733C267.218 83.9733 268.094 83.0978 268.094 82.0178C268.094 80.9378 267.218 80.0623 266.138 80.0623C265.058 80.0623 264.183 80.9378 264.183 82.0178C264.183 83.0978 265.058 83.9733 266.138 83.9733Z" fill="#250B0B"/>
<path d="M267.685 81.4388C267.685 81.5156 267.67 81.5917 267.64 81.6626C267.611 81.7335 267.567 81.7977 267.512 81.8516C267.458 81.9055 267.393 81.948 267.321 81.9765C267.25 82.005 267.174 82.0191 267.097 82.0178C266.955 81.9997 266.824 81.9304 266.73 81.8229C266.635 81.7155 266.583 81.5772 266.583 81.434C266.583 81.2908 266.635 81.1526 266.73 81.0451C266.824 80.9376 266.955 80.8684 267.097 80.8502C267.174 80.8502 267.251 80.8654 267.322 80.895C267.393 80.9246 267.458 80.9679 267.513 81.0226C267.568 81.0772 267.611 81.1421 267.641 81.2135C267.67 81.2849 267.685 81.3615 267.685 81.4388V81.4388Z" fill="#FAF9F9"/>
<path d="M283.101 86.5744C283.112 86.9634 283.007 87.3469 282.799 87.6759C282.592 88.0049 282.29 88.2643 281.934 88.4211C281.578 88.5779 281.183 88.6249 280.8 88.556C280.417 88.4871 280.063 88.3055 279.784 88.0344C279.505 87.7633 279.313 87.4151 279.233 87.0343C279.153 86.6535 279.188 86.2574 279.334 85.8967C279.48 85.5361 279.731 85.2272 280.053 85.0097C280.376 84.7922 280.756 84.676 281.146 84.6758C281.654 84.6756 282.143 84.8738 282.509 85.2283C282.874 85.5828 283.086 86.0657 283.101 86.5744V86.5744Z" fill="#250B0B"/>
<path d="M282.731 85.9953C282.731 86.1489 282.67 86.2962 282.561 86.4048C282.453 86.5134 282.305 86.5744 282.152 86.5744C282.075 86.5756 281.999 86.5616 281.927 86.5331C281.856 86.5045 281.791 86.4621 281.736 86.4082C281.681 86.3543 281.638 86.29 281.608 86.2191C281.578 86.1482 281.563 86.0722 281.563 85.9953C281.563 85.8392 281.625 85.6895 281.736 85.5791C281.846 85.4688 281.996 85.4068 282.152 85.4068C282.229 85.4067 282.305 85.422 282.376 85.4517C282.446 85.4814 282.511 85.5249 282.565 85.5797C282.618 85.6345 282.661 85.6994 282.689 85.7708C282.718 85.8422 282.732 85.9185 282.731 85.9953Z" fill="#FAF9F9"/>
<path d="M296.476 91.3113C296.476 91.3113 293.837 91.8714 293.505 93.7794C293.172 95.6875 295.128 95.4027 295.403 94.6812C295.678 93.9598 294.558 93.5611 294.558 93.5611C294.944 92.6279 295.616 91.8405 296.476 91.3113Z" fill="#DB8C52"/>
<path d="M263.888 90.0487C263.888 90.0487 268.635 93.694 278.497 94.7951C278.497 94.7951 275.82 103.994 268.862 101.307C262.654 98.934 263.888 90.0487 263.888 90.0487Z" fill="#33231A"/>
<path d="M271.131 95.9438C268.921 95.9343 266.719 96.2152 264.581 96.7791C264.915 97.8055 265.471 98.7458 266.21 99.5332C266.948 100.321 267.85 100.936 268.853 101.336C273.704 103.234 276.447 99.3137 277.7 96.7791C275.556 96.2153 273.348 95.9344 271.131 95.9438Z" fill="#AF3D52"/>
<path d="M265.958 74.7084C265.958 74.7084 269.755 73.892 271.131 76.6069L270.315 78.4106C269.81 77.7094 269.116 77.1666 268.314 76.8455C267.513 76.5244 266.636 76.4383 265.787 76.5974L265.958 74.7084Z" fill="#493222"/>
<path d="M286.812 82.7772C286.812 82.7772 285.075 79.3409 282.066 79.9294L281.174 81.6951C282.047 81.6442 282.917 81.8453 283.679 82.2744C284.441 82.7036 285.064 83.3427 285.474 84.1157L286.812 82.7772Z" fill="#493222"/>
<path d="M265.882 107.24L272.669 142.629L284.791 107.667L289.651 109.462L287.999 122.932L283.462 128.893L286.585 133.773L272.678 145.8L259.759 131.504L263.034 126.587L258.876 121.033L260.661 109.832L265.882 107.24Z" fill="#44597F"/>
<path d="M299.627 113.676L326.434 145.8L296.666 172.086L290.22 163.447L310.6 145.79L298.241 139.051L299.627 113.676Z" fill="#44597F"/>
<path d="M290.22 163.438L282.18 160.647C281.928 160.559 281.657 160.542 281.396 160.597C281.135 160.652 280.894 160.778 280.699 160.96V160.96C280.43 161.216 280.266 161.564 280.242 161.936C280.217 162.307 280.333 162.673 280.567 162.963L283.462 166.504H276.77C276.77 166.504 286.309 178.949 296.704 172.086L290.22 163.438Z" fill="#E0BA92"/>
<path d="M221.438 166.504C221.438 166.504 216.854 170.424 212.895 169.095C208.937 167.766 206.365 158.653 212.183 157.704C218.002 156.755 221.438 166.504 221.438 166.504Z" fill="#E0BA92"/>
<path d="M252.146 183.515L241.819 246.547L246.982 300.533H256.598L258.876 248.503L270.818 216.018L276.77 300.533H285.911L295.65 186.182L252.146 183.515Z" fill="#44597F"/>
<path d="M287.942 185.708L295.65 186.182L285.911 300.533H282.237L287.942 185.708ZM263.888 211.234V213.588L251.131 247.382L251.966 300.542H256.646L258.924 248.512L270.865 216.028L276.456 212.515C276.456 212.515 269.157 213.787 263.888 211.234Z" fill="#2A4268"/>
<path d="M246.982 300.533C246.982 300.533 230.845 303.684 228.074 312H256.294L256.579 300.533H246.982Z" fill="#AF3D52"/>
<path d="M285.911 300.533C285.911 300.533 293.229 302.82 295.65 312H276.77V300.533H285.911Z" fill="#AF3D52"/>
<path d="M293.334 167.614L296.666 172.086L326.434 145.8L299.627 113.676L320.919 145.582L293.334 167.614Z" fill="#2A4268"/>
<path d="M285.911 300.533H282.503C283.67 301.529 288.635 306.01 290.761 312H295.65C293.229 302.82 285.911 300.533 285.911 300.533Z" fill="#7E273F"/>
<path d="M251.918 300.533L251.083 312H256.313L256.598 300.533H251.918Z" fill="#7E273F"/>
<path d="M310.6 145.79L290.22 163.447L291.046 164.548L314.227 145.192L298.545 133.393L298.241 139.051L310.6 145.79Z" fill="#54739E"/>
<path d="M252.146 183.515L241.819 246.547L246.982 300.533H249.223L243.907 245.256L256.143 183.762L252.146 183.515Z" fill="#54739E"/>
<path d="M270.818 216.018L276.77 300.533H279.817L276.409 212.506L270.818 216.018Z" fill="#54739E"/>
<path d="M228.074 312H234.785C238.173 306.664 243.259 302.625 249.223 300.533H246.982C246.982 300.533 230.845 303.684 228.074 312Z" fill="#D64363"/>
<path d="M276.77 312H280.234L279.817 300.533H276.77V312Z" fill="#D64363"/>
<path d="M277.7 57.0233C286.243 61.2191 291.046 60.4692 292.394 64.6175L289.622 63.8771C289.622 63.8771 293.742 67.0951 293.808 70.522C294.897 70.8179 295.883 71.4093 296.656 72.2307C296.41 71.5758 296.291 70.8799 296.305 70.1803C296.305 70.1803 296.628 60.3268 286.974 58.3333C277.32 56.3398 269.869 52.2104 269.707 48.2045C269.707 48.2045 269.147 52.8369 277.7 57.0233Z" fill="#33231A"/>
<path opacity="0.2" d="M266.167 87.1724C266.005 87.685 264.98 87.8084 263.888 87.4477C262.797 87.087 262.037 86.3845 262.208 85.8814C262.379 85.3783 263.395 85.2549 264.486 85.6156C265.578 85.9763 266.328 86.6693 266.167 87.1724Z" fill="#AF3D52"/>
<path opacity="0.2" d="M283.538 92.3935C283.376 92.9061 282.351 93.02 281.259 92.6688C280.168 92.3175 279.418 91.6056 279.579 91.1024C279.741 90.5993 280.766 90.4759 281.857 90.8272C282.949 91.1784 283.708 91.8903 283.538 92.3935Z" fill="#AF3D52"/>
</svg>
